<svg width="16" height="16" viewBox="0 0 16 16" xmlns="http://www.w3.org/2000/svg">
  <rect x="1" y="1" width="14" height="14" rx="3.5" fill="#234441" stroke="#4a8a82" stroke-width="1"/>
  <circle cx="7" cy="7" r="1.5" fill="#5fd0c0"/><path d="M7 4.2 V2.8 M7 9.8 V11.2 M4.2 7 H2.8 M9.8 7 H11.2 M4.9 4.9 L3.9 3.9 M9.1 9.1 L10.1 10.1 M9.1 4.9 L10.1 3.9 M4.9 9.1 L3.9 10.1" stroke="#98e8dc" stroke-width="1" stroke-linecap="round"/><path d="M10.6 11.2 L12.2 10.4 L13.6 11.2 L13.6 12.6 L12.2 13.4 L10.6 12.6 Z" fill="none" stroke="#5fd0c0" stroke-width="0.8" stroke-linejoin="round"/><path d="M10.6 11.2 L12.2 12 L13.6 11.2 M12.2 12 L12.2 13.4" fill="none" stroke="#5fd0c0" stroke-width="0.8"/>
</svg>
